<svg width="80" height="17" viewBox="0 0 80 17" fill="none" xmlns="http://www.w3.org/2000/svg">
<mask id="path-1-outside-1_40_5" maskUnits="userSpaceOnUse" x="0.288574" y="0.780029" width="80" height="17" fill="black">
<rect fill="white" x="0.288574" y="0.780029" width="80" height="17"/>
<path d="M1.28857 16H4.26857C7.38857 16 9.74857 14.6 9.74857 11.2C9.74857 9.56003 8.82858 8.26003 7.58857 7.66003C8.46857 7.22003 9.08857 6.26003 9.08857 5.18003C9.08857 3.10003 7.50857 2.00003 5.16857 2.00003H1.28857V16ZM3.76857 13.92V8.70003H5.02857C6.22857 8.70003 7.22857 9.80003 7.22857 11.22C7.22857 12.68 6.38857 13.92 5.12857 13.92H3.76857ZM3.76857 4.08003H5.16857C5.92857 4.08003 6.66857 4.50003 6.66857 5.36003C6.66857 6.18003 6.10857 6.60003 5.40857 6.66003H3.76857V4.08003Z"/>
<path d="M9.31732 16H11.7973L12.8973 11.02H15.5573L16.6173 16H19.2773L16.0573 2.00003H12.4573L9.31732 16ZM14.2173 4.08003H14.2773L15.2173 9.00003H13.2373L14.2173 4.08003Z"/>
<path d="M19.5089 16H21.9889V9.16003H23.1289L25.7089 16H28.4089L25.5489 8.74003C25.9089 8.56003 26.2489 8.32003 26.5689 7.98003C27.3489 7.14003 27.4689 6.08003 27.4689 5.54003C27.4689 3.28003 25.4689 2.00003 23.6289 2.00003H19.5089V16ZM21.9889 4.22003H23.3689C24.2289 4.22003 24.8689 4.78003 24.8689 5.54003C24.8689 6.40003 24.3889 6.92003 23.6089 6.98003H21.9889V4.22003Z"/>
<path d="M34.2842 2.00003L30.8842 5.48003V2.00003H28.4042V16H30.8842V8.32003L31.5842 7.58003L34.9842 16H37.7242L33.5642 5.82003L37.3842 2.00003H34.2842Z"/>
<path d="M41.8683 16.2C44.2083 16.2 46.0483 14.66 46.4283 10.42L43.9283 10.24C43.7483 12.22 43.2483 13.88 41.8683 13.88C40.3483 13.88 39.6683 12.06 39.6683 8.80003C39.6683 6.38003 40.2683 4.10003 41.8883 4.10003C43.1483 4.10003 43.5483 5.42003 43.8483 6.72003L46.2683 6.20003C45.7283 3.04003 43.8683 1.78003 41.8883 1.78003C38.9083 1.78003 37.1083 4.48003 37.1083 8.80003C37.1083 14.3 39.3883 16.2 41.8683 16.2Z"/>
<path d="M46.9175 16H49.3975V8.86003H53.3775V16H55.8575V2.00003H53.3775V6.66003H49.3975V2.00003H46.9175V16Z"/>
<path d="M61.4186 13.86C59.8386 13.86 59.1386 12 59.1386 8.80003C59.1386 6.20003 59.7786 4.14003 61.4186 4.14003C63.0786 4.14003 63.6986 6.18003 63.6986 8.80003C63.6986 11.96 62.9786 13.86 61.4186 13.86ZM61.4186 16.2C64.5386 16.2 66.2786 13.4 66.2786 8.80003C66.2786 4.48003 64.5386 1.78003 61.4186 1.78003C58.3186 1.78003 56.5786 4.48003 56.5786 8.80003C56.5786 13.38 58.2986 16.2 61.4186 16.2Z"/>
<path d="M68.0333 16H70.6733L72.2733 9.70003L73.9133 16H76.5533L78.7533 2.00003H76.3133L74.8733 11.72H74.8333L73.1133 5.08003H71.5133L69.8333 11.72H69.7733L68.4533 2.00003H65.9733L68.0333 16Z"/>
</mask>
<path d="M1.28857 16H4.26857C7.38857 16 9.74857 14.6 9.74857 11.2C9.74857 9.56003 8.82858 8.26003 7.58857 7.66003C8.46857 7.22003 9.08857 6.26003 9.08857 5.18003C9.08857 3.10003 7.50857 2.00003 5.16857 2.00003H1.28857V16ZM3.76857 13.92V8.70003H5.02857C6.22857 8.70003 7.22857 9.80003 7.22857 11.22C7.22857 12.68 6.38857 13.92 5.12857 13.92H3.76857ZM3.76857 4.08003H5.16857C5.92857 4.08003 6.66857 4.50003 6.66857 5.36003C6.66857 6.18003 6.10857 6.60003 5.40857 6.66003H3.76857V4.08003Z" fill="black"/>
<path d="M9.31732 16H11.7973L12.8973 11.02H15.5573L16.6173 16H19.2773L16.0573 2.00003H12.4573L9.31732 16ZM14.2173 4.08003H14.2773L15.2173 9.00003H13.2373L14.2173 4.08003Z" fill="black"/>
<path d="M19.5089 16H21.9889V9.16003H23.1289L25.7089 16H28.4089L25.5489 8.74003C25.9089 8.56003 26.2489 8.32003 26.5689 7.98003C27.3489 7.14003 27.4689 6.08003 27.4689 5.54003C27.4689 3.28003 25.4689 2.00003 23.6289 2.00003H19.5089V16ZM21.9889 4.22003H23.3689C24.2289 4.22003 24.8689 4.78003 24.8689 5.54003C24.8689 6.40003 24.3889 6.92003 23.6089 6.98003H21.9889V4.22003Z" fill="black"/>
<path d="M34.2842 2.00003L30.8842 5.48003V2.00003H28.4042V16H30.8842V8.32003L31.5842 7.58003L34.9842 16H37.7242L33.5642 5.82003L37.3842 2.00003H34.2842Z" fill="black"/>
<path d="M41.8683 16.2C44.2083 16.2 46.0483 14.66 46.4283 10.42L43.9283 10.24C43.7483 12.22 43.2483 13.88 41.8683 13.88C40.3483 13.88 39.6683 12.06 39.6683 8.80003C39.6683 6.38003 40.2683 4.10003 41.8883 4.10003C43.1483 4.10003 43.5483 5.42003 43.8483 6.72003L46.2683 6.20003C45.7283 3.04003 43.8683 1.78003 41.8883 1.78003C38.9083 1.78003 37.1083 4.48003 37.1083 8.80003C37.1083 14.3 39.3883 16.2 41.8683 16.2Z" fill="black"/>
<path d="M46.9175 16H49.3975V8.86003H53.3775V16H55.8575V2.00003H53.3775V6.66003H49.3975V2.00003H46.9175V16Z" fill="black"/>
<path d="M61.4186 13.86C59.8386 13.86 59.1386 12 59.1386 8.80003C59.1386 6.20003 59.7786 4.14003 61.4186 4.14003C63.0786 4.14003 63.6986 6.18003 63.6986 8.80003C63.6986 11.96 62.9786 13.86 61.4186 13.86ZM61.4186 16.2C64.5386 16.2 66.2786 13.4 66.2786 8.80003C66.2786 4.48003 64.5386 1.78003 61.4186 1.78003C58.3186 1.78003 56.5786 4.48003 56.5786 8.80003C56.5786 13.38 58.2986 16.2 61.4186 16.2Z" fill="black"/>
<path d="M68.0333 16H70.6733L72.2733 9.70003L73.9133 16H76.5533L78.7533 2.00003H76.3133L74.8733 11.72H74.8333L73.1133 5.08003H71.5133L69.8333 11.72H69.7733L68.4533 2.00003H65.9733L68.0333 16Z" fill="black"/>
<path d="M1.28857 16H4.26857C7.38857 16 9.74857 14.6 9.74857 11.2C9.74857 9.56003 8.82858 8.26003 7.58857 7.66003C8.46857 7.22003 9.08857 6.26003 9.08857 5.18003C9.08857 3.10003 7.50857 2.00003 5.16857 2.00003H1.28857V16ZM3.76857 13.92V8.70003H5.02857C6.22857 8.70003 7.22857 9.80003 7.22857 11.22C7.22857 12.68 6.38857 13.92 5.12857 13.92H3.76857ZM3.76857 4.08003H5.16857C5.92857 4.08003 6.66857 4.50003 6.66857 5.36003C6.66857 6.18003 6.10857 6.60003 5.40857 6.66003H3.76857V4.08003Z" stroke="#EA5B5B" stroke-width="1.6" mask="url(#path-1-outside-1_40_5)"/>
<path d="M9.31732 16H11.7973L12.8973 11.02H15.5573L16.6173 16H19.2773L16.0573 2.00003H12.4573L9.31732 16ZM14.2173 4.08003H14.2773L15.2173 9.00003H13.2373L14.2173 4.08003Z" stroke="#EA5B5B" stroke-width="1.6" mask="url(#path-1-outside-1_40_5)"/>
<path d="M19.5089 16H21.9889V9.16003H23.1289L25.7089 16H28.4089L25.5489 8.74003C25.9089 8.56003 26.2489 8.32003 26.5689 7.98003C27.3489 7.14003 27.4689 6.08003 27.4689 5.54003C27.4689 3.28003 25.4689 2.00003 23.6289 2.00003H19.5089V16ZM21.9889 4.22003H23.3689C24.2289 4.22003 24.8689 4.78003 24.8689 5.54003C24.8689 6.40003 24.3889 6.92003 23.6089 6.98003H21.9889V4.22003Z" stroke="#EA5B5B" stroke-width="1.6" mask="url(#path-1-outside-1_40_5)"/>
<path d="M34.2842 2.00003L30.8842 5.48003V2.00003H28.4042V16H30.8842V8.32003L31.5842 7.58003L34.9842 16H37.7242L33.5642 5.82003L37.3842 2.00003H34.2842Z" stroke="#EA5B5B" stroke-width="1.6" mask="url(#path-1-outside-1_40_5)"/>
<path d="M41.8683 16.2C44.2083 16.2 46.0483 14.66 46.4283 10.42L43.9283 10.24C43.7483 12.22 43.2483 13.88 41.8683 13.88C40.3483 13.88 39.6683 12.06 39.6683 8.80003C39.6683 6.38003 40.2683 4.10003 41.8883 4.10003C43.1483 4.10003 43.5483 5.42003 43.8483 6.72003L46.2683 6.20003C45.7283 3.04003 43.8683 1.78003 41.8883 1.78003C38.9083 1.78003 37.1083 4.48003 37.1083 8.80003C37.1083 14.3 39.3883 16.2 41.8683 16.2Z" stroke="#EA5B5B" stroke-width="1.6" mask="url(#path-1-outside-1_40_5)"/>
<path d="M46.9175 16H49.3975V8.86003H53.3775V16H55.8575V2.00003H53.3775V6.66003H49.3975V2.00003H46.9175V16Z" stroke="#EA5B5B" stroke-width="1.6" mask="url(#path-1-outside-1_40_5)"/>
<path d="M61.4186 13.86C59.8386 13.86 59.1386 12 59.1386 8.80003C59.1386 6.20003 59.7786 4.14003 61.4186 4.14003C63.0786 4.14003 63.6986 6.18003 63.6986 8.80003C63.6986 11.96 62.9786 13.86 61.4186 13.86ZM61.4186 16.2C64.5386 16.2 66.2786 13.4 66.2786 8.80003C66.2786 4.48003 64.5386 1.78003 61.4186 1.78003C58.3186 1.78003 56.5786 4.48003 56.5786 8.80003C56.5786 13.38 58.2986 16.2 61.4186 16.2Z" stroke="#EA5B5B" stroke-width="1.6" mask="url(#path-1-outside-1_40_5)"/>
<path d="M68.0333 16H70.6733L72.2733 9.70003L73.9133 16H76.5533L78.7533 2.00003H76.3133L74.8733 11.72H74.8333L73.1133 5.08003H71.5133L69.8333 11.72H69.7733L68.4533 2.00003H65.9733L68.0333 16Z" stroke="#EA5B5B" stroke-width="1.6" mask="url(#path-1-outside-1_40_5)"/>
</svg>
