<!-- <svg xmlns="http://www.w3.org/2000/svg" width="1562" height="252" fill="none"><g clip-path="url(#a)"><path fill-rule="evenodd" clip-rule="evenodd" d="m1058.24 148.034-.02.127-.06.308 30.86-144.98h66.64l-19.34 91.487h32.8l66.29-91.488h78.37l-99.09 118.762 37.79 80.546L1373.77 3.488h73.88l44.19 241.667h-69.74l-5.87-44.19h-93.9l-24.51 44.19h-100.04l-37.64-94.25h-35.9l-20.02 94.25h-66.64l18.93-88.929c-13.68 56.82-58.382 93.417-122.791 93.417-52.727 0-90.563-22.708-106.949-60.88l10.311 56.392h-69.738l-5.869-44.19h-93.905l-24.512 44.19h-71.119l70.653-116.096c-18.79 21.095-48.643 33.239-82.464 33.239h-63.869l-17.607 82.857H196.405l-5.869-44.19H96.631l-24.512 44.19H1L148.072 3.488h73.881l40.612 222.098L309.84 3.488h66.631l-40.047 188.155h86.986L463.46 3.488h122.56c46.952 0 77.333 29.69 77.333 69.738 0 11.087-1.921 21.365-5.467 30.701L719.01 3.488h73.881l24.84 135.845C818.644 56.643 869.884-1 949.945-1c67.665 0 108.405 37.631 112.895 98.393H993.1c-2.762-26.929-18.988-43.845-46.262-43.845-38.322 0-60.072 35.214-61.798 79.405-1.035 37.285 15.881 61.797 50.06 61.797 27.274 0 44.881-18.297 52.821-47.297h70.429c-.03.194-.07.388-.11.581Zm-935.371 6.323 49.715-89.416 11.738 89.416h-61.453Zm383.746-40.738h51.095c23.822 0 40.739-14.155 40.739-34.869 0-14.5-11.739-26.928-30.381-26.928h-48.679l-12.774 61.797Zm187.192 40.738 49.715-89.416 11.738 89.416h-61.453Zm704.473-89.416-49.71 89.416h61.45l-11.74-89.416Zm145.4 122.248c-5.17-2.828-10.57-4.243-16.2-4.243-5.63 0-11.03 1.415-16.2 4.243-5.17 2.829-9.24 6.872-12.21 12.13-2.95 5.228-4.42 10.714-4.42 16.458 0 5.714 1.44 11.172 4.33 16.372 2.91 5.172 6.96 9.215 12.13 12.129 5.2 2.886 10.66 4.329 16.37 4.329 5.72 0 11.16-1.443 16.33-4.329 5.2-2.914 9.24-6.957 12.13-12.129 2.91-5.2 4.37-10.658 4.37-16.372 0-5.744-1.48-11.23-4.46-16.458-2.94-5.258-7-9.301-12.17-12.13Zm-29.23 5.615c4.17-2.257 8.52-3.386 13.03-3.386 4.52 0 8.84 1.129 12.99 3.386 4.17 2.257 7.44 5.5 9.81 9.729 2.37 4.229 3.56 8.643 3.56 13.244 0 4.571-1.17 8.943-3.51 13.115-2.32 4.171-5.56 7.429-9.73 9.772-4.18 2.314-8.55 3.471-13.12 3.471-4.57 0-8.94-1.157-13.11-3.471-4.17-2.343-7.43-5.601-9.78-9.772-2.31-4.172-3.47-8.544-3.47-13.115 0-4.629 1.19-9.044 3.56-13.244 2.37-4.229 5.63-7.472 9.77-9.729Zm27.9 30.173-6.9-2.314c-.77 2.628-1.85 4.514-3.25 5.657-1.4 1.114-3.06 1.672-4.98 1.672-2.28 0-4.24-.986-5.87-2.958-1.63-1.971-2.44-5.043-2.44-9.215 0-4.171.83-7.228 2.49-9.171 1.65-1.972 3.78-2.958 6.38-2.958 1.74 0 3.24.472 4.5 1.415 1.29.943 2.33 2.457 3.13 4.543l6.94-1.629c-1.31-3.6-3.15-6.229-5.53-7.886-2.34-1.686-5.27-2.529-8.78-2.529-3.2 0-6.1.715-8.7 2.143-2.57 1.429-4.54 3.586-5.92 6.472-1.37 2.886-2.05 6.172-2.05 9.858 0 5.629 1.54 10.043 4.63 13.243 3.08 3.2 7.07 4.8 11.95 4.8 3.49 0 6.49-.957 9-2.871 2.52-1.915 4.32-4.672 5.4-8.272Z" fill="#212121"/></g><defs><clipPath id="a"><path fill="#fff" d="M0 0h1562v252H0z"/></clipPath></defs></svg> -->

<!-- <svg width="939" height="190" viewBox="0 0 939 190" fill="none" xmlns="http://www.w3.org/2000/svg">
<path d="M0.00241089 190L31.3945 0.909058H105.997C120.277 0.909058 132.034 3.43273 141.267 8.48008C150.561 13.5274 157.086 20.6984 160.84 29.9929C164.657 39.2258 165.549 50.1207 163.518 62.6775C161.425 75.2343 156.901 86.0061 149.946 94.9929C143.052 103.98 134.065 110.904 122.985 115.767C111.967 120.568 99.1951 122.969 84.6686 122.969H34.7183L40.2581 90.838H83.653C91.2856 90.838 97.8102 89.7916 103.227 87.6988C108.644 85.606 112.921 82.4668 116.061 78.2812C119.261 74.0956 121.354 68.8944 122.339 62.6775C123.385 56.3376 123.016 51.044 121.231 46.7968C119.446 42.4881 116.215 39.2258 111.537 37.0099C106.858 34.7325 100.703 33.5937 93.0706 33.5937H66.1104L39.9811 190H0.00241089ZM116.338 103.949L149.115 190H104.981L73.2197 103.949H116.338Z" fill="#212121"/>
<path d="M150.051 190L181.443 0.909058H308.858L303.318 33.8707H215.882L208.495 78.9275H289.376L283.836 111.889H202.956L195.569 157.038H283.375L277.835 190H150.051Z" fill="#212121"/>
<path d="M287.15 190L318.542 0.909058H393.144C407.425 0.909058 419.151 3.64817 428.322 9.12639C437.555 14.5431 444.018 22.0833 447.711 31.7471C451.466 41.3494 452.328 52.4289 450.296 64.9858C448.204 77.6041 443.649 88.7145 436.632 98.3167C429.676 107.857 420.628 115.305 409.487 120.66C398.346 126.016 385.481 128.693 370.893 128.693H323.343L328.606 96.6548H369.693C377.448 96.6548 384.065 95.3314 389.544 92.6846C395.083 89.9763 399.484 86.2523 402.747 81.5128C406.009 76.7116 408.133 71.2026 409.117 64.9858C410.164 58.6458 409.825 53.1368 408.102 48.4588C406.378 43.7807 403.208 40.1491 398.592 37.5639C394.037 34.9171 387.912 33.5937 380.218 33.5937H353.258L327.129 190H287.15Z" fill="#212121"/>
<path d="M433.39 190L464.782 0.909058H504.761L478.908 157.038H559.974L554.434 190H433.39Z" fill="#212121"/>
<path d="M630.18 0.909058L598.788 190H558.809L590.201 0.909058H630.18Z" fill="#212121"/>
<path d="M609.581 190L640.973 0.909058H680.951L667.194 84.2826H669.687L751.491 0.909058H799.41L715.483 85.5753L768.849 190H721.022L682.429 112.258L658.608 136.449L649.559 190H609.581Z" fill="#212121"/>
<path d="M799.331 190H756.49L853.159 0.909058H904.679L938.471 190H895.63L872.64 44.1193H871.163L799.331 190ZM809.118 115.675H910.311L904.956 146.882H803.763L809.118 115.675Z" fill="#212121"/>
</svg> -->


<svg width="1183" height="184" viewBox="0 0 1183 184" fill="none" xmlns="http://www.w3.org/2000/svg">
<path d="M132.989 184H180.343L159.268 0.806641H102.266L0.196106 184H49.4539L70.1473 143.756H129.942L132.989 184ZM121.944 41.6855H122.96L128.038 110.24H87.032L121.944 41.6855Z" fill="#212121"/>
<path d="M214.833 184L240.605 62.252H241.62L259.902 183.746H288.085L357.782 62.252H359.179L333.027 184H374.54L413.515 0.806641H355.497L285.673 124.967H284.784L265.868 0.806641H212.294L173.447 184H214.833Z" fill="#212121"/>
<path d="M475.047 184C515.291 184 543.982 159.625 543.982 125.602C543.982 106.812 530.144 92.7207 510.593 88.5312L510.72 87.6426C535.476 82.6914 553.123 64.4102 553.123 40.1621C553.123 17.6914 534.334 0.806641 499.675 0.806641H419.441L380.466 184H475.047ZM458.543 31.0215H483.172C498.533 31.0215 506.531 37.877 506.531 48.668C506.531 63.0137 494.343 73.4238 475.935 73.4238H449.656L458.543 31.0215ZM433.152 150.992L443.181 103.512H471.238C488.504 103.512 497.39 111.002 497.39 123.443C497.39 139.947 484.441 150.992 464.382 150.992H433.152Z" fill="#212121"/>
<path d="M650.328 184H697.682L676.607 0.806641H619.605L517.535 184H566.793L587.486 143.756H647.281L650.328 184ZM639.283 41.6855H640.299L645.377 110.24H604.371L639.283 41.6855Z" fill="#212121"/>
<path d="M737.25 184L748.041 133.473L769.37 112.145L801.743 184H853.032L807.963 85.7383L891.879 0.806641H838.178L760.483 79.0098H759.594L776.225 0.806641H729.633L690.659 184H737.25Z" fill="#212121"/>
<path d="M966.106 184H1013.46L992.386 0.806641H935.384L833.313 184H882.571L903.264 143.756H963.059L966.106 184ZM955.061 41.6855H956.077L961.155 110.24H920.149L955.061 41.6855Z" fill="#212121"/>
<path d="M1006.44 184H1053.16L1066.74 119.889H1092.13L1110.92 184H1159.54L1137.96 115.318C1166.65 105.543 1182.52 80.5332 1182.52 54C1182.52 23.1504 1161.07 0.806641 1123.49 0.806641H1045.41L1006.44 184ZM1084.64 35.9727H1110.67C1126.53 35.9727 1135.55 43.7168 1135.55 57.9355C1135.55 74.9473 1122.47 87.0078 1102.41 87.0078H1073.59L1084.64 35.9727Z" fill="#212121"/>
</svg>
