<svg width="1438" height="221" viewBox="0 0 1438 221" fill="#fff" xmlns="http://www.w3.org/2000/svg">
<path d="M155.55 218.99L96.38 128.1C128.71 121.085 145.79 99.125 145.79 66.795C145.79 27.45 119.865 1.83001 74.115 1.83001H0V218.99H40.565V130.235H51.24L109.8 218.99H155.55ZM40.565 93.33V38.735H71.98C92.11 38.735 104.615 48.495 104.615 66.795C104.615 84.79 92.11 93.33 71.98 93.33H40.565Z" fill="black"/>
<path d="M303.775 218.99V182.085H204.955V128.1H265.955V91.195H204.955V38.735H303.775V1.83001H164.39V218.99H303.775Z" fill="black"/>
<path d="M358.027 218.99V136.03H391.272C437.327 136.03 462.947 110.715 462.947 69.845C462.947 28.67 437.327 1.83001 391.272 1.83001H317.462V218.99H358.027ZM358.027 99.125V38.735H389.137C409.572 38.735 421.772 49.41 421.772 69.845C421.772 89.67 409.572 99.125 389.137 99.125H358.027Z" fill="black"/>
<path d="M633.828 218.99L574.658 128.1C606.988 121.085 624.068 99.125 624.068 66.795C624.068 27.45 598.143 1.83001 552.393 1.83001H478.278V218.99H518.843V130.235H529.518L588.078 218.99H633.828ZM518.843 93.33V38.735H550.258C570.388 38.735 582.893 48.495 582.893 66.795C582.893 84.79 570.388 93.33 550.258 93.33H518.843Z" fill="black"/>
<path d="M782.053 218.99V182.085H683.233V128.1H744.233V91.195H683.233V38.735H782.053V1.83001H642.668V218.99H782.053Z" fill="black"/>
<path d="M929.635 68.93C929.635 25.62 902.795 0 862.535 0C824.105 0 792.69 23.485 792.69 63.745C792.69 93.025 809.465 108.275 835.695 118.645L864.06 129.93C881.14 136.64 895.475 142.13 895.475 158.6C895.475 176.9 878.395 183.61 862.84 183.61C838.745 183.61 826.24 167.14 823.19 139.385L786.59 147.315C786.59 193.065 818.615 220.82 863.45 220.82C904.015 220.82 936.65 198.25 936.65 156.16C936.65 122.305 915.3 108.58 889.985 98.515L859.79 86.62C847.895 82.045 833.56 76.25 833.56 60.695C833.56 45.14 847.895 37.21 861.925 37.21C879.31 37.21 890.29 49.715 893.035 76.86L929.635 68.93Z" fill="black"/>
<path d="M1089.69 218.99V182.085H990.866V128.1H1051.87V91.195H990.866V38.735H1089.69V1.83001H950.301V218.99H1089.69Z" fill="black"/>
<path d="M1270.51 218.99V1.83001H1229.95V142.435L1142.72 1.83001H1103.37V218.99H1143.94V77.775L1231.47 218.99H1270.51Z" fill="black"/>
<path d="M1377.56 218.99V38.735H1437.95V1.83001H1276.6V38.735H1336.99V218.99H1377.56Z" fill="black"/>
</svg>
