<svg xmlns="http://www.w3.org/2000/svg" width="1562" height="252" fill="none"><g clip-path="url(#a)"><path fill-rule="evenodd" clip-rule="evenodd" d="m1058.24 148.034-.02.127-.06.308 30.86-144.98h66.64l-19.34 91.487h32.8l66.29-91.488h78.37l-99.09 118.762 37.79 80.546L1373.77 3.488h73.88l44.19 241.667h-69.74l-5.87-44.19h-93.9l-24.51 44.19h-100.04l-37.64-94.25h-35.9l-20.02 94.25h-66.64l18.93-88.929c-13.68 56.82-58.382 93.417-122.791 93.417-52.727 0-90.563-22.708-106.949-60.88l10.311 56.392h-69.738l-5.869-44.19h-93.905l-24.512 44.19h-71.119l70.653-116.096c-18.79 21.095-48.643 33.239-82.464 33.239h-63.869l-17.607 82.857H196.405l-5.869-44.19H96.631l-24.512 44.19H1L148.072 3.488h73.881l40.612 222.098L309.84 3.488h66.631l-40.047 188.155h86.986L463.46 3.488h122.56c46.952 0 77.333 29.69 77.333 69.738 0 11.087-1.921 21.365-5.467 30.701L719.01 3.488h73.881l24.84 135.845C818.644 56.643 869.884-1 949.945-1c67.665 0 108.405 37.631 112.895 98.393H993.1c-2.762-26.929-18.988-43.845-46.262-43.845-38.322 0-60.072 35.214-61.798 79.405-1.035 37.285 15.881 61.797 50.06 61.797 27.274 0 44.881-18.297 52.821-47.297h70.429c-.03.194-.07.388-.11.581Zm-935.371 6.323 49.715-89.416 11.738 89.416h-61.453Zm383.746-40.738h51.095c23.822 0 40.739-14.155 40.739-34.869 0-14.5-11.739-26.928-30.381-26.928h-48.679l-12.774 61.797Zm187.192 40.738 49.715-89.416 11.738 89.416h-61.453Zm704.473-89.416-49.71 89.416h61.45l-11.74-89.416Zm145.4 122.248c-5.17-2.828-10.57-4.243-16.2-4.243-5.63 0-11.03 1.415-16.2 4.243-5.17 2.829-9.24 6.872-12.21 12.13-2.95 5.228-4.42 10.714-4.42 16.458 0 5.714 1.44 11.172 4.33 16.372 2.91 5.172 6.96 9.215 12.13 12.129 5.2 2.886 10.66 4.329 16.37 4.329 5.72 0 11.16-1.443 16.33-4.329 5.2-2.914 9.24-6.957 12.13-12.129 2.91-5.2 4.37-10.658 4.37-16.372 0-5.744-1.48-11.23-4.46-16.458-2.94-5.258-7-9.301-12.17-12.13Zm-29.23 5.615c4.17-2.257 8.52-3.386 13.03-3.386 4.52 0 8.84 1.129 12.99 3.386 4.17 2.257 7.44 5.5 9.81 9.729 2.37 4.229 3.56 8.643 3.56 13.244 0 4.571-1.17 8.943-3.51 13.115-2.32 4.171-5.56 7.429-9.73 9.772-4.18 2.314-8.55 3.471-13.12 3.471-4.57 0-8.94-1.157-13.11-3.471-4.17-2.343-7.43-5.601-9.78-9.772-2.31-4.172-3.47-8.544-3.47-13.115 0-4.629 1.19-9.044 3.56-13.244 2.37-4.229 5.63-7.472 9.77-9.729Zm27.9 30.173-6.9-2.314c-.77 2.628-1.85 4.514-3.25 5.657-1.4 1.114-3.06 1.672-4.98 1.672-2.28 0-4.24-.986-5.87-2.958-1.63-1.971-2.44-5.043-2.44-9.215 0-4.171.83-7.228 2.49-9.171 1.65-1.972 3.78-2.958 6.38-2.958 1.74 0 3.24.472 4.5 1.415 1.29.943 2.33 2.457 3.13 4.543l6.94-1.629c-1.31-3.6-3.15-6.229-5.53-7.886-2.34-1.686-5.27-2.529-8.78-2.529-3.2 0-6.1.715-8.7 2.143-2.57 1.429-4.54 3.586-5.92 6.472-1.37 2.886-2.05 6.172-2.05 9.858 0 5.629 1.54 10.043 4.63 13.243 3.08 3.2 7.07 4.8 11.95 4.8 3.49 0 6.49-.957 9-2.871 2.52-1.915 4.32-4.672 5.4-8.272Z" fill="#212121"/></g><defs><clipPath id="a"><path fill="#fff" d="M0 0h1562v252H0z"/></clipPath></defs></svg>